<svg xmlns="http://www.w3.org/2000/svg" xmlns:xlink="http://www.w3.org/1999/xlink" width="74.14208984375" height="69.34423828125" viewBox="0 0 74.14208984375 69.34423828125" fill="none">
<path d="M8.5 9.34424L8.5 68.8442L49 68.8442L73 68.8442L67 62.3442L49 62.3442L49 9.34424L42 0.844238L35 9.34424L21 9.34424L14.5 0.844238L8.5 9.34424Z" stroke="rgba(0, 173, 181, 1)" stroke-width="1"      fill="#00ADB5" >
</path>
<path d="M8 20.8442L1.5 16.8442L0 19.3442L2.82744 20.9347L8 23.8442L8 20.8442Z"   fill="#00ADB5" >
</path>
<path d="M49 20.3442L55.5 16.3442L57 18.8442L54.1726 20.4347L49 23.3442L49 20.3442Z"   fill="#00ADB5" >
</path>
<path d="M49 27.3442L55.5 31.3442L57 28.8442L54.1726 27.2538L49 24.3442L49 27.3442Z"   fill="#00ADB5" >
</path>
<path d="M8 28.3442L1.5 32.3442L0 29.8442L2.82744 28.2538L8 25.3442L8 28.3442Z"   fill="#00ADB5" >
</path>
<path d="M25.5 69.3442L36 60.3442L39 60.3442L28.5 69.3442L25.5 69.3442Z"   fill="#FFFFFF" >
</path>
<path d="M31.4121 34.3442L20.4121 34.3442L20.4121 37.8442L30.4121 47.8442L32.9121 47.8442L22.9121 37.8442L22.9121 35.8442L31.4121 35.8442L31.4121 34.3442Z"   fill="#FFFFFF" >
</path>
<path d="M8 34.3442L1 34.3442L1 37.3442L8 47.3442L8 34.3442Z"   fill="#00ADB5" >
</path>
<rect x="26" y="17.34423828125" width="3" height="6"   fill="#FFFFFF" >
</rect>
<rect x="16" y="17.34423828125" width="3" height="6"   fill="#FFFFFF" >
</rect>
</svg>
